<?xml version="1.0" encoding="UTF-8" standalone="no"?>
<svg
   height="24"
   version="1.1"
   width="24"
   id="svg8"
   sodipodi:docname="marker_blue.svg"
   inkscape:version="1.2.2 (732a01da63, 2022-12-09)"
   xmlns:inkscape="http://www.inkscape.org/namespaces/inkscape"
   xmlns:sodipodi="http://sodipodi.sourceforge.net/DTD/sodipodi-0.dtd"
   xmlns="http://www.w3.org/2000/svg"
   xmlns:svg="http://www.w3.org/2000/svg">
  <defs
     id="defs12" />
  <sodipodi:namedview
     id="namedview10"
     pagecolor="#ffffff"
     bordercolor="#000000"
     borderopacity="0.25"
     inkscape:showpageshadow="2"
     inkscape:pageopacity="0.0"
     inkscape:pagecheckerboard="0"
     inkscape:deskcolor="#d1d1d1"
     showgrid="false"
     inkscape:zoom="11.313709"
     inkscape:cx="-21.434174"
     inkscape:cy="13.523417"
     inkscape:window-width="1920"
     inkscape:window-height="1001"
     inkscape:window-x="-9"
     inkscape:window-y="-9"
     inkscape:window-maximized="1"
     inkscape:current-layer="svg8" />
  <g
     transform="translate(0 -1028.4)"
     id="g6">
    <path
       d="m12.031 1030.4c-3.8657 0-6.9998 3.1-6.9998 7 0 1.3 0.4017 2.6 1.0938 3.7 0.0334 0.1 0.059 0.1 0.0938 0.2l4.3432 8c0.204 0.6 0.782 1.1 1.438 1.1s1.202-0.5 1.406-1.1l4.844-8.7c0.499-1 0.781-2.1 0.781-3.2 0-3.9-3.134-7-7-7zm-0.031 3.9c1.933 0 3.5 1.6 3.5 3.5 0 2-1.567 3.5-3.5 3.5s-3.5-1.5-3.5-3.5c0-1.9 1.567-3.5 3.5-3.5z"
       fill="#c0392b"
       id="path2" />
    <path
       d="m12.031 1.0312c-3.8657 0-6.9998 3.134-6.9998 7 0 1.383 0.4017 2.6648 1.0938 3.7498 0.0334 0.053 0.059 0.105 0.0938 0.157l4.3432 8.062c0.204 0.586 0.782 1.031 1.438 1.031s1.202-0.445 1.406-1.031l4.844-8.75c0.499-0.963 0.781-2.06 0.781-3.2188 0-3.866-3.134-7-7-7zm-0.031 3.9688c1.933 0 3.5 1.567 3.5 3.5s-1.567 3.5-3.5 3.5-3.5-1.567-3.5-3.5 1.567-3.5 3.5-3.5z"
       fill="#e74c3c"
       transform="translate(0 1028.4)"
       id="path4" />
  </g>
  <path
     style="fill:#008000;fill-opacity:1"
     d="m 8.5158054,8.5285714 c -0.00531,-1.2937235 0.6967609,-2.4813812 1.8310036,-3.0974178 0.844737,-0.4587984 1.917288,-0.5395954 2.831296,-0.2132861 1.388418,0.4956786 2.312207,1.8276556 2.306036,3.3249896 l -0.0012,0.3 -0.06699,-0.2590848 C 15.235183,7.8847446 14.886695,7.2963152 14.371145,6.819651 13.01779,5.5683727 10.947704,5.580232 9.6011458,6.8469777 9.0958969,7.3222795 8.7634727,7.8899457 8.5840823,8.5837723 l -0.066987,0.2590848 z"
     id="path379" />
  <path
     style="fill:#00c300;fill-opacity:1;stroke-width:0.0285714"
     d="m 11.814286,21.008613 c -0.04714,-0.0063 -0.15,-0.03183 -0.228572,-0.05681 -0.454384,-0.144456 -0.786821,-0.44454 -0.991115,-0.894658 -0.10135,-0.223302 -4.2459847,-7.9178 -4.4784835,-8.314286 C 5.8078873,11.217228 5.7554936,11.117436 5.6179046,10.793941 5.2291592,9.8799346 5.0571429,9.0396143 5.0571429,8.0545534 c 0,-0.8428251 0.093689,-1.4445128 0.3429116,-2.2022497 C 5.9135108,4.2911926 6.9969867,2.9249848 8.4,2.0695256 c 0.8619437,-0.525553 1.919915,-0.884172 2.909874,-0.986356 0.473493,-0.048874 1.441852,-0.01944 1.87584,0.057018 1.410904,0.2485667 2.67374,0.8885499 3.696457,1.8732999 1.123019,1.081327 1.869651,2.5612035 2.076157,4.1150835 0.05758,0.433238 0.0652,1.3176509 0.01479,1.7142857 C 18.870951,9.6465586 18.637172,10.438501 18.306809,11.1 c -0.06278,0.125714 -1.177734,2.150714 -2.477668,4.5 -1.299934,2.349286 -2.426229,4.393542 -2.502876,4.542791 -0.241691,0.470622 -0.582737,0.743052 -1.054836,0.842611 -0.196331,0.0414 -0.286053,0.04596 -0.457143,0.02321 z m 0.803275,-9.05284 c 1.08718,-0.189588 2.026883,-0.89381 2.531626,-1.897222 0.722252,-1.4358136 0.32448,-3.269385 -0.926494,-4.2707747 -0.4295,-0.3438097 -0.828795,-0.5471092 -1.364873,-0.6949197 -0.250281,-0.069009 -0.317939,-0.075169 -0.843534,-0.076799 -0.63615,-0.00197 -0.834061,0.032229 -1.324033,0.2288074 -1.9055364,0.76451 -2.7517656,3.0252103 -1.8176544,4.855862 0.4896705,0.959646 1.4337574,1.663111 2.4873184,1.853369 0.308702,0.05575 0.942732,0.05659 1.257644,0.0017 z"
     id="path1894" />
  <path
     style="fill:#008000;fill-opacity:1;stroke-width:0.0285714"
     d="M 11.59968,21.919506 C 11.199937,21.787605 10.848061,21.47044 10.654736,21.067778 10.557568,20.865394 6.8136477,13.942548 5.9926565,12.447173 5.4958307,11.542242 5.2205426,10.730862 5.1012866,9.8199653 5.0644661,9.5387241 5.0411835,8.7220874 5.0762799,8.9428571 c 0.174218,1.0958969 0.4444366,1.8452379 1.0094079,2.7991819 0.2163917,0.365373 4.3406392,8.017269 4.5031352,8.354861 0.194976,0.405074 0.501359,0.697777 0.887172,0.847562 0.248163,0.09634 0.683408,0.110684 0.945277,0.03114 0.415397,-0.126173 0.708925,-0.393978 0.952247,-0.868797 0.08245,-0.160888 1.210724,-2.208238 2.507281,-4.549666 1.296558,-2.341429 2.424311,-4.398572 2.506119,-4.571429 0.268231,-0.566761 0.471147,-1.2327615 0.569947,-1.8706533 0.02549,-0.1645737 0.05356,-0.3060023 0.06238,-0.3142857 0.02087,-0.019594 -0.01453,0.657691 -0.05073,0.9706536 -0.08332,0.7203964 -0.323103,1.5537504 -0.637109,2.2142854 -0.06723,0.141429 -1.196183,2.185715 -2.508779,4.542857 -1.312597,2.357143 -2.440608,4.399435 -2.506692,4.538427 -0.164632,0.346268 -0.439903,0.628971 -0.761012,0.781559 -0.208527,0.09909 -0.248855,0.108166 -0.512068,0.115234 -0.215696,0.0058 -0.324302,-0.0051 -0.443177,-0.04429 z"
     id="path2381" />
  <path
     style="fill:#008000;fill-opacity:1;stroke-width:0.00390625"
     d=""
     id="path2383" />
  <path
     style="fill:#008000;fill-opacity:1;stroke-width:0.00390625"
     d=""
     id="path2389" />
  <path
     style="fill:#008000;fill-opacity:1;stroke-width:0.00390625"
     d=""
     id="path2391" />
  <path
     style="fill:#008000;fill-opacity:1;stroke-width:0.00390625"
     d=""
     id="path2393" />
  <path
     style="fill:#0000ff;fill-opacity:1;stroke-width:0.03125"
     d="M 11.59375,20.928881 C 11.321703,20.835791 11.107761,20.706099 10.937596,20.531117 10.796289,20.385812 10.722329,20.259661 10.186498,19.25 9.2009747,17.39299 6.4509898,12.302999 6.0904475,11.668556 5.5590124,10.733395 5.2794083,9.9633028 5.1385703,9.046875 5.0652998,8.5701072 5.065049,7.48768 5.1380995,7.015625 5.4357672,5.092085 6.5096304,3.3871456 8.125,2.273415 9.1080962,1.5956109 10.397031,1.1536417 11.609375,1.0786407 c 0.368765,-0.022813 1.270197,0.027239 1.625,0.090229 0.630354,0.1119098 1.222135,0.3080077 1.84375,0.6109622 2.220277,1.0820895 3.713039,3.2809077 3.893988,5.7357933 0.0715,0.9700497 -0.03809,1.8361175 -0.350867,2.7728138 -0.190194,0.569583 -0.11169,0.421878 -3.126985,5.883436 -0.901467,1.632812 -1.792786,3.249367 -1.980709,3.592342 -0.256475,0.468091 -0.384621,0.667675 -0.513892,0.800375 -0.374121,0.384043 -0.928434,0.527672 -1.40591,0.364289 z m 1.359375,-9.034366 c 0.896899,-0.267358 1.60262,-0.809156 2.080379,-1.597152 C 15.825874,8.9904609 15.628976,7.2123062 14.567267,6.0868378 14.166352,5.6618475 13.609921,5.3162072 13.015625,5.1229984 12.726566,5.0290241 12.66412,5.0203359 12.183132,5.0071747 11.585355,4.9908175 11.256595,5.0262906 10.913037,5.1442178 9.6492859,5.5780019 8.7628487,6.6044803 8.5278253,7.90625 c -0.066508,0.3683781 -0.050484,1.01913 0.033856,1.375 0.2464816,1.040012 0.9143519,1.894196 1.8438327,2.3582 0.601777,0.300412 0.892119,0.36089 1.672611,0.348402 0.537393,-0.0086 0.620446,-0.01746 0.875,-0.09334 z"
     id="path3217" />
  <path
     style="fill:#00009b;fill-opacity:1;stroke-width:0.03125"
     d="M 11.441448,21.82906 C 11.04963,21.639341 10.857128,21.412998 10.470568,20.6875 10.015334,19.833115 7.6223952,15.405536 6.647518,13.61383 6.199964,12.791281 5.7646245,11.963297 5.680097,11.773867 5.3455728,11.024182 5.1344477,10.20828 5.1078772,9.5625 l -0.014786,-0.359375 0.080661,0.34375 c 0.1783395,0.760027 0.4255123,1.370494 0.8824162,2.179388 0.3635682,0.643655 3.5492458,6.547697 4.3686996,8.096546 0.300926,0.56878 0.49073,0.815211 0.761914,0.989229 0.235082,0.150853 0.489854,0.219212 0.816989,0.219212 0.494752,0 0.878207,-0.183753 1.157895,-0.554868 0.06145,-0.08154 0.385581,-0.647476 0.720285,-1.257632 0.334703,-0.610156 1.210456,-2.199219 1.946117,-3.53125 1.978925,-3.58316 2.553602,-4.642267 2.679117,-4.9375 0.150252,-0.35342 0.319639,-0.9024077 0.414605,-1.34375 L 18.999119,9.046875 18.982184,9.375 c -0.04755,0.92134 -0.305536,1.864737 -0.747756,2.734375 -0.139841,0.275 -1.175468,2.159375 -2.301394,4.1875 -1.125926,2.028125 -2.207611,3.982812 -2.403744,4.34375 -0.309278,0.569155 -0.385691,0.685599 -0.57576,0.877394 -0.139086,0.140348 -0.287659,0.254522 -0.406655,0.3125 -0.166725,0.08123 -0.225588,0.09239 -0.53125,0.100735 -0.338776,0.0092 -0.347085,0.0078 -0.574177,-0.102194 z"
     id="path6323" />
  <path
     style="fill:#00009b;fill-opacity:1;stroke-width:0.03125"
     d="M 8.532292,8.4788237 C 8.5277709,7.6412086 8.891796,6.7501378 9.4979655,6.1150211 10.049087,5.5375812 10.707884,5.1957837 11.49987,5.0763919 c 1.109941,-0.1673234 2.196641,0.2023038 2.975309,1.0120132 0.527805,0.5488469 0.82586,1.1447504 0.947411,1.8941705 0.02525,0.1556772 0.0455,0.3744556 0.04499,0.4861744 l -9.15e-4,0.203125 -0.102613,-0.3125 C 14.888097,6.9098734 13.644096,5.9505158 12.15625,5.8855568 10.55087,5.8154664 9.1474196,6.8017111 8.6359463,8.359375 l -0.1026123,0.3125 z"
     id="path8533" />
</svg>
