<?xml version="1.0" encoding="UTF-8" standalone="no"?>
<svg
   height="24"
   version="1.1"
   width="24"
   id="svg8"
   sodipodi:docname="marker_green.svg"
   inkscape:version="1.2.2 (732a01da63, 2022-12-09)"
   xmlns:inkscape="http://www.inkscape.org/namespaces/inkscape"
   xmlns:sodipodi="http://sodipodi.sourceforge.net/DTD/sodipodi-0.dtd"
   xmlns="http://www.w3.org/2000/svg"
   xmlns:svg="http://www.w3.org/2000/svg">
  <defs
     id="defs12" />
  <sodipodi:namedview
     id="namedview10"
     pagecolor="#ffffff"
     bordercolor="#000000"
     borderopacity="0.25"
     inkscape:showpageshadow="2"
     inkscape:pageopacity="0.0"
     inkscape:pagecheckerboard="0"
     inkscape:deskcolor="#d1d1d1"
     showgrid="false"
     inkscape:zoom="5.6568543"
     inkscape:cx="45.696776"
     inkscape:cy="9.1923881"
     inkscape:window-width="1920"
     inkscape:window-height="1001"
     inkscape:window-x="-9"
     inkscape:window-y="-9"
     inkscape:window-maximized="1"
     inkscape:current-layer="svg8" />
  <g
     transform="translate(0 -1028.4)"
     id="g6">
    <path
       d="m12.031 1030.4c-3.8657 0-6.9998 3.1-6.9998 7 0 1.3 0.4017 2.6 1.0938 3.7 0.0334 0.1 0.059 0.1 0.0938 0.2l4.3432 8c0.204 0.6 0.782 1.1 1.438 1.1s1.202-0.5 1.406-1.1l4.844-8.7c0.499-1 0.781-2.1 0.781-3.2 0-3.9-3.134-7-7-7zm-0.031 3.9c1.933 0 3.5 1.6 3.5 3.5 0 2-1.567 3.5-3.5 3.5s-3.5-1.5-3.5-3.5c0-1.9 1.567-3.5 3.5-3.5z"
       fill="#c0392b"
       id="path2" />
    <path
       d="m12.031 1.0312c-3.8657 0-6.9998 3.134-6.9998 7 0 1.383 0.4017 2.6648 1.0938 3.7498 0.0334 0.053 0.059 0.105 0.0938 0.157l4.3432 8.062c0.204 0.586 0.782 1.031 1.438 1.031s1.202-0.445 1.406-1.031l4.844-8.75c0.499-0.963 0.781-2.06 0.781-3.2188 0-3.866-3.134-7-7-7zm-0.031 3.9688c1.933 0 3.5 1.567 3.5 3.5s-1.567 3.5-3.5 3.5-3.5-1.567-3.5-3.5 1.567-3.5 3.5-3.5z"
       fill="#e74c3c"
       transform="translate(0 1028.4)"
       id="path4" />
  </g>
  <path
     style="fill:#008000;fill-opacity:1"
     d="m 8.5158054,8.5285714 c -0.00531,-1.2937235 0.6967609,-2.4813812 1.8310036,-3.0974178 0.844737,-0.4587984 1.917288,-0.5395954 2.831296,-0.2132861 1.388418,0.4956786 2.312207,1.8276556 2.306036,3.3249896 l -0.0012,0.3 -0.06699,-0.2590848 C 15.235183,7.8847446 14.886695,7.2963152 14.371145,6.819651 13.01779,5.5683727 10.947704,5.580232 9.6011458,6.8469777 9.0958969,7.3222795 8.7634727,7.8899457 8.5840823,8.5837723 l -0.066987,0.2590848 z"
     id="path379" />
  <path
     style="fill:#00c300;fill-opacity:1;stroke-width:0.0285714"
     d="m 11.814286,21.008613 c -0.04714,-0.0063 -0.15,-0.03183 -0.228572,-0.05681 -0.454384,-0.144456 -0.786821,-0.44454 -0.991115,-0.894658 -0.10135,-0.223302 -4.2459847,-7.9178 -4.4784835,-8.314286 C 5.8078873,11.217228 5.7554936,11.117436 5.6179046,10.793941 5.2291592,9.8799346 5.0571429,9.0396143 5.0571429,8.0545534 c 0,-0.8428251 0.093689,-1.4445128 0.3429116,-2.2022497 C 5.9135108,4.2911926 6.9969867,2.9249848 8.4,2.0695256 c 0.8619437,-0.525553 1.919915,-0.884172 2.909874,-0.986356 0.473493,-0.048874 1.441852,-0.01944 1.87584,0.057018 1.410904,0.2485667 2.67374,0.8885499 3.696457,1.8732999 1.123019,1.081327 1.869651,2.5612035 2.076157,4.1150835 0.05758,0.433238 0.0652,1.3176509 0.01479,1.7142857 C 18.870951,9.6465586 18.637172,10.438501 18.306809,11.1 c -0.06278,0.125714 -1.177734,2.150714 -2.477668,4.5 -1.299934,2.349286 -2.426229,4.393542 -2.502876,4.542791 -0.241691,0.470622 -0.582737,0.743052 -1.054836,0.842611 -0.196331,0.0414 -0.286053,0.04596 -0.457143,0.02321 z m 0.803275,-9.05284 c 1.08718,-0.189588 2.026883,-0.89381 2.531626,-1.897222 0.722252,-1.4358136 0.32448,-3.269385 -0.926494,-4.2707747 -0.4295,-0.3438097 -0.828795,-0.5471092 -1.364873,-0.6949197 -0.250281,-0.069009 -0.317939,-0.075169 -0.843534,-0.076799 -0.63615,-0.00197 -0.834061,0.032229 -1.324033,0.2288074 -1.9055364,0.76451 -2.7517656,3.0252103 -1.8176544,4.855862 0.4896705,0.959646 1.4337574,1.663111 2.4873184,1.853369 0.308702,0.05575 0.942732,0.05659 1.257644,0.0017 z"
     id="path1894" />
  <path
     style="fill:#008000;fill-opacity:1;stroke-width:0.0285714"
     d="M 11.59968,21.919506 C 11.199937,21.787605 10.848061,21.47044 10.654736,21.067778 10.557568,20.865394 6.8136477,13.942548 5.9926565,12.447173 5.4958307,11.542242 5.2205426,10.730862 5.1012866,9.8199653 5.0644661,9.5387241 5.0411835,8.7220874 5.0762799,8.9428571 c 0.174218,1.0958969 0.4444366,1.8452379 1.0094079,2.7991819 0.2163917,0.365373 4.3406392,8.017269 4.5031352,8.354861 0.194976,0.405074 0.501359,0.697777 0.887172,0.847562 0.248163,0.09634 0.683408,0.110684 0.945277,0.03114 0.415397,-0.126173 0.708925,-0.393978 0.952247,-0.868797 0.08245,-0.160888 1.210724,-2.208238 2.507281,-4.549666 1.296558,-2.341429 2.424311,-4.398572 2.506119,-4.571429 0.268231,-0.566761 0.471147,-1.2327615 0.569947,-1.8706533 0.02549,-0.1645737 0.05356,-0.3060023 0.06238,-0.3142857 0.02087,-0.019594 -0.01453,0.657691 -0.05073,0.9706536 -0.08332,0.7203964 -0.323103,1.5537504 -0.637109,2.2142854 -0.06723,0.141429 -1.196183,2.185715 -2.508779,4.542857 -1.312597,2.357143 -2.440608,4.399435 -2.506692,4.538427 -0.164632,0.346268 -0.439903,0.628971 -0.761012,0.781559 -0.208527,0.09909 -0.248855,0.108166 -0.512068,0.115234 -0.215696,0.0058 -0.324302,-0.0051 -0.443177,-0.04429 z"
     id="path2381" />
  <path
     style="fill:#008000;fill-opacity:1;stroke-width:0.00390625"
     d=""
     id="path2383" />
  <path
     style="fill:#008000;fill-opacity:1;stroke-width:0.00390625"
     d=""
     id="path2389" />
  <path
     style="fill:#008000;fill-opacity:1;stroke-width:0.00390625"
     d=""
     id="path2391" />
  <path
     style="fill:#008000;fill-opacity:1;stroke-width:0.00390625"
     d=""
     id="path2393" />
</svg>
